<?xml version="1.0" encoding="UTF-8"?>
<svg viewBox="0 0 405.03595 295.42911" xmlns="http://www.w3.org/2000/svg" xmlns:xlink="http://www.w3.org/1999/xlink">
 <defs>
  <linearGradient id="a">
   <stop stop-color="#b3b3b3" offset="0"/>
   <stop stop-color="#fff" offset=".5"/>
   <stop stop-color="#808080" offset="1"/>
  </linearGradient>
  <linearGradient id="c" x1="806.43" x2="848.66" y1="300.65" y2="302.46" gradientUnits="userSpaceOnUse" xlink:href="#a"/>
  <linearGradient id="d" x1="806.43" x2="848.66" y1="216.65" y2="218.46" gradientUnits="userSpaceOnUse" xlink:href="#a"/>
  <linearGradient id="e" x1="806.43" x2="848.66" y1="146.65" y2="148.46" gradientUnits="userSpaceOnUse" xlink:href="#a"/>
  <radialGradient id="b" cx="841.56" cy="-55.675" r="181.36" gradientTransform="matrix(.027488 1.0811 -1.5543 .03952 716.41 -952.27)" gradientUnits="userSpaceOnUse">
   <stop offset="0"/>
   <stop stop-color="#918a6f" stop-opacity="0" offset="1"/>
  </radialGradient>
 </defs>
 <g transform="matrix(.98014 -.17282 .17282 .98014 -592.86 340.59)">
  <path d="m830.81-165.06c-1.9467 0-3.5734 2.7998-4.0625 6.625h-1.4062c-0.5454-3.6298-2.118-6.25-4-6.25h-172.44c-2.3358 0-4.1875 4.0011-4.1875 9v215c0 4.9989 1.8517 9 4.1875 9h162.62c0.01665 4.1347 3.3611 7.4375 7.5 7.4375h15.188c4.1492 0 7.5-3.3195 7.5-7.4688v-0.3125h161.5c2.3357 0 4.2187-4.0323 4.2187-9.0312v-214.97c0-4.9989-1.883-9.0312-4.2187-9.0312h-172.41z" fill="url(#b)"/>
  <g transform="translate(-10 -294.29)">
   <g fill="#918a6f" stroke="#000">
    <path transform="scale(-1,1)" d="m-834.21 129.57h15.183a7.4896 7.4896 0 0 1 7.4896 7.4896v219.21a7.4896 7.4896 0 0 1 -7.4896 7.4896h-15.183a7.4896 7.4896 0 0 1 -7.4896 -7.4896v-219.21a7.4896 7.4896 0 0 1 7.4896 -7.4896" stroke-width=".83218"/>
    <path d="m648.92 123.3h172.42a4.2162 9.0233 0 0 1 4.2162 9.0233v214.97a4.2162 9.0233 0 0 1 -4.2162 9.0233h-172.42a4.2162 9.0233 0 0 1 -4.2162 -9.0233v-214.97a4.2162 9.0233 0 0 1 4.2162 -9.0233" stroke-width="1.9202"/>
    <path transform="scale(-1,1)" d="m-1003.2 122.93h172.42a4.2162 9.0233 0 0 1 4.2162 9.0233v214.97a4.2162 9.0233 0 0 1 -4.2162 9.0233h-172.42a4.2162 9.0233 0 0 1 -4.2162 -9.0233v-214.97a4.2162 9.0233 0 0 1 4.2162 -9.0233" stroke-width="1.9202"/>
   </g>
   <path transform="scale(-1,1)" d="m-830.24 129.57h7.2369a7.4896 7.4896 0 0 1 7.4896 7.4896v215.69a7.4896 7.4896 0 0 1 -7.4896 7.4896h-7.2369a7.4896 7.4896 0 0 1 -7.4896 -7.4896v-215.69a7.4896 7.4896 0 0 1 7.4896 -7.4896" fill="#6c6753" stroke="#000" stroke-width=".83218"/>
   <path d="m670.76 137.61h142.49a3.4845 8.203 0 0 1 3.4845 8.203v195.43a3.4845 8.203 0 0 1 -3.4845 8.203h-142.49a3.4845 8.203 0 0 1 -3.4845 -8.203v-195.43a3.4845 8.203 0 0 1 3.4845 -8.203" fill="#fff" stroke="#000" stroke-width="1.6644"/>
   <path d="m671.37 135.34h142.49a3.4845 8.203 0 0 1 3.4845 8.203v195.43a3.4845 8.203 0 0 1 -3.4845 8.203h-142.49a3.4845 8.203 0 0 1 -3.4845 -8.203v-195.43a3.4845 8.203 0 0 1 3.4845 -8.203" fill="#fff" stroke="#000" stroke-width="1.6644"/>
   <path d="m671.98 133.06h142.49a3.4845 8.203 0 0 1 3.4845 8.203v195.43a3.4845 8.203 0 0 1 -3.4845 8.203h-142.49a3.4845 8.203 0 0 1 -3.4845 -8.203v-195.43a3.4845 8.203 0 0 1 3.4845 -8.203" fill="#fff" stroke="#000" stroke-width="1.6644"/>
   <path d="m658.71 144.96h11.818a2.4854 6.4315 0 0 1 2.4854 6.4315v29.582a2.4854 6.4315 0 0 1 -2.4854 6.4315h-11.818a2.4854 6.4315 0 0 1 -2.4854 -6.4315v-29.582a2.4854 6.4315 0 0 1 2.4854 -6.4315" fill="#aad400" stroke="#000" stroke-width="1.2446"/>
   <path d="m658.71 176.6h11.818a2.4854 6.4315 0 0 1 2.4854 6.4315v29.582a2.4854 6.4315 0 0 1 -2.4854 6.4315h-11.818a2.4854 6.4315 0 0 1 -2.4854 -6.4315v-29.582a2.4854 6.4315 0 0 1 2.4854 -6.4315" fill="#f60" stroke="#000" stroke-width="1.2446"/>
   <path d="m658.71 208.24h11.818a2.4854 6.4315 0 0 1 2.4854 6.4315v29.582a2.4854 6.4315 0 0 1 -2.4854 6.4315h-11.818a2.4854 6.4315 0 0 1 -2.4854 -6.4315v-29.582a2.4854 6.4315 0 0 1 2.4854 -6.4315" fill="#5f8dd3" stroke="#000" stroke-width="1.2446"/>
   <path d="m658.71 239.89h11.818a2.4854 6.4315 0 0 1 2.4854 6.4315v29.582a2.4854 6.4315 0 0 1 -2.4854 6.4315h-11.818a2.4854 6.4315 0 0 1 -2.4854 -6.4315v-29.582a2.4854 6.4315 0 0 1 2.4854 -6.4315" fill="#fd5" stroke="#000" stroke-width="1.2446"/>
   <path d="m658.71 271.53h11.818a2.4854 6.4315 0 0 1 2.4854 6.4315v29.582a2.4854 6.4315 0 0 1 -2.4854 6.4315h-11.818a2.4854 6.4315 0 0 1 -2.4854 -6.4315v-29.582a2.4854 6.4315 0 0 1 2.4854 -6.4315" fill="#f00" stroke="#000" stroke-width="1.2446"/>
   <path d="m672.59 130.79h142.49a3.4845 8.203 0 0 1 3.4845 8.203v195.43a3.4845 8.203 0 0 1 -3.4845 8.203h-142.49a3.4845 8.203 0 0 1 -3.4845 -8.203v-195.43a3.4845 8.203 0 0 1 3.4845 -8.203" fill="#fff" stroke="#000" stroke-width="1.6644"/>
   <path transform="scale(-1,1)" d="m-981.38 137.24h142.49a3.4845 8.203 0 0 1 3.4845 8.203v195.43a3.4845 8.203 0 0 1 -3.4845 8.203h-142.49a3.4845 8.203 0 0 1 -3.4845 -8.203v-195.43a3.4845 8.203 0 0 1 3.4845 -8.203" fill="#fff" stroke="#000" stroke-width="1.6644"/>
   <path transform="scale(-1,1)" d="m-980.77 134.97h142.49a3.4845 8.203 0 0 1 3.4845 8.203v195.43a3.4845 8.203 0 0 1 -3.4845 8.203h-142.49a3.4845 8.203 0 0 1 -3.4845 -8.203v-195.43a3.4845 8.203 0 0 1 3.4845 -8.203" fill="#fff" stroke="#000" stroke-width="1.6644"/>
   <path transform="scale(-1,1)" d="m-980.16 132.69h142.49a3.4845 8.203 0 0 1 3.4845 8.203v195.43a3.4845 8.203 0 0 1 -3.4845 8.203h-142.49a3.4845 8.203 0 0 1 -3.4845 -8.203v-195.43a3.4845 8.203 0 0 1 3.4845 -8.203" fill="#fff" stroke="#000" stroke-width="1.6644"/>
   <path transform="scale(-1,1)" d="m-979.55 130.42h142.49a3.4845 8.203 0 0 1 3.4845 8.203v195.43a3.4845 8.203 0 0 1 -3.4845 8.203h-142.49a3.4845 8.203 0 0 1 -3.4845 -8.203v-195.43a3.4845 8.203 0 0 1 3.4845 -8.203" fill="#fff" stroke="#000" stroke-width="1.6644"/>
   <path d="m813.56 322.2-136.61 1e-5" fill="none" stroke="#000" stroke-width=".75775"/>
   <path d="m813.56 306.66-136.61 1e-5" fill="none" stroke="#000" stroke-width=".75775"/>
   <path d="m813.56 291.13-136.61 1e-5" fill="none" stroke="#000" stroke-width=".75775"/>
   <path d="m813.56 275.59-136.61 1e-5" fill="none" stroke="#000" stroke-width=".75775"/>
   <path d="m813.56 260.06h-136.61" fill="none" stroke="#000" stroke-width=".75775"/>
   <path d="m813.56 244.53-136.61 1e-5" fill="none" stroke="#000" stroke-width=".75775"/>
   <path d="m813.56 228.99-136.61 1e-5" fill="none" stroke="#000" stroke-width=".75775"/>
   <path d="m813.56 213.46-136.61 1e-5" fill="none" stroke="#000" stroke-width=".75775"/>
   <path d="m813.56 197.92-136.61 1e-5" fill="none" stroke="#000" stroke-width=".75775"/>
   <path d="m813.56 182.39h-136.61" fill="none" stroke="#000" stroke-width=".75775"/>
   <path d="m813.56 166.86-136.61 1e-5" fill="none" stroke="#000" stroke-width=".75775"/>
   <path d="m813.56 151.32-136.61 1e-5" fill="none" stroke="#000" stroke-width=".75775"/>
   <path d="m975.42 322.92-136.61 1e-5" fill="none" stroke="#000" stroke-width=".75775"/>
   <path d="m975.42 307.39-136.61 1e-5" fill="none" stroke="#000" stroke-width=".75775"/>
   <path d="m975.42 291.85-136.61 1e-5" fill="none" stroke="#000" stroke-width=".75775"/>
   <path d="m975.42 276.32-136.61 1e-5" fill="none" stroke="#000" stroke-width=".75775"/>
   <path d="m975.42 260.78h-136.61" fill="none" stroke="#000" stroke-width=".75775"/>
   <path d="m975.42 245.25-136.61 1e-5" fill="none" stroke="#000" stroke-width=".75775"/>
   <path d="m975.42 229.72-136.61 1e-5" fill="none" stroke="#000" stroke-width=".75775"/>
   <path d="m975.42 214.18-136.61 1e-5" fill="none" stroke="#000" stroke-width=".75775"/>
   <path d="m975.42 198.65-136.61 1e-5" fill="none" stroke="#000" stroke-width=".75775"/>
   <path d="m975.42 183.12h-136.61" fill="none" stroke="#000" stroke-width=".75775"/>
   <path d="m975.42 167.58-136.61 1e-5" fill="none" stroke="#000" stroke-width=".75775"/>
   <path d="m975.42 152.05-136.61 1e-5" fill="none" stroke="#000" stroke-width=".75775"/>
   <path transform="matrix(4.984e-8 .83218 -.83218 4.984e-8 2173.8 180.81)" d="m65.054 1594.7a5.6568 9.153 0 1 1 -11.314 0 5.6568 9.153 0 1 1 11.314 0z"/>
   <path transform="matrix(4.984e-8 .83218 -.83218 4.984e-8 2133.5 180.06)" d="m65.054 1594.7a5.6568 9.153 0 1 1 -11.314 0 5.6568 9.153 0 1 1 11.314 0z"/>
   <path transform="matrix(4.984e-8 .83218 -.83218 4.984e-8 2173.1 265.09)" d="m65.054 1594.7a5.6568 9.153 0 1 1 -11.314 0 5.6568 9.153 0 1 1 11.314 0z"/>
   <path transform="matrix(4.984e-8 .83218 -.83218 4.984e-8 2132.8 264.34)" d="m65.054 1594.7a5.6568 9.153 0 1 1 -11.314 0 5.6568 9.153 0 1 1 11.314 0z"/>
   <path transform="matrix(4.984e-8 .83218 -.83218 4.984e-8 2173.3 110)" d="m65.054 1594.7a5.6568 9.153 0 1 1 -11.314 0 5.6568 9.153 0 1 1 11.314 0z"/>
   <path transform="matrix(4.984e-8 .83218 -.83218 4.984e-8 2133 109.25)" d="m65.054 1594.7a5.6568 9.153 0 1 1 -11.314 0 5.6568 9.153 0 1 1 11.314 0z"/>
   <path d="m825.93 138.06c-11.817-1.6e-4 -21.509 9.1901-22.313 20.804l4.4989 1e-5c0.79605-9.1406 8.4682-16.332 17.814-16.331s17.018 7.1909 17.814 16.331l4.4991 1e-5c-0.80441-11.614-10.496-20.804-22.313-20.804z" fill="url(#e)" stroke="#000" stroke-width=".5"/>
   <path d="m825.93 208.06c-11.817-1.6e-4 -21.509 9.1901-22.313 20.804l4.4989 1e-5c0.79605-9.1406 8.4682-16.332 17.814-16.331s17.018 7.1909 17.814 16.331l4.4991 1e-5c-0.80441-11.614-10.496-20.804-22.313-20.804z" fill="url(#d)" stroke="#000" stroke-width=".5"/>
   <path d="m825.93 292.06c-11.817-1.6e-4 -21.509 9.1901-22.313 20.804l4.4989 1e-5c0.79605-9.1406 8.4682-16.332 17.814-16.331s17.018 7.1909 17.814 16.331l4.4991 1e-5c-0.80441-11.614-10.496-20.804-22.313-20.804z" fill="url(#c)" stroke="#000" stroke-width=".5"/>
  </g>
 </g>
</svg>
